<svg version="1.1" viewBox="0.0 0.0 594.6587926509186 593.7165354330708" fill="none" stroke="none" stroke-linecap="square" stroke-miterlimit="10" xmlns:xlink="http://www.w3.org/1999/xlink" xmlns="http://www.w3.org/2000/svg"><clipPath id="p.0"><path d="m0 0l594.6588 0l0 593.71655l-594.6588 0l0 -593.71655z" clip-rule="nonzero"/></clipPath><g clip-path="url(#p.0)"><path fill="#000000" fill-opacity="0.0" d="m0 0l594.6588 0l0 593.71655l-594.6588 0z" fill-rule="evenodd"/><path fill="#4a86e8" d="m34.456696 25.435833l0 542.8705l123.48003 0l0 -169.00806c0 -50.151276 -1.1376953 -93.44461 -3.4130707 -129.87997c-0.52282715 -8.701904 -1.1379242 -17.348877 -1.8452911 -25.940887l0 0l118.37727 193.05563l49.489532 0l121.769775 -195.69269l0 0c-0.9524536 10.930908 -1.7638855 21.88739 -2.434204 32.869415c-2.1941223 37.19272 -3.2911682 79.05557 -3.2911682 125.5885l0 169.00806l123.6019 0l0 -542.8705l-109.34015 0l-152.36249 253.22432l-150.18185 -253.22432z" fill-rule="evenodd"/><path stroke="#000000" stroke-width="12.0" stroke-linejoin="round" stroke-linecap="butt" d="m34.456696 25.435833l0 542.8705l123.48003 0l0 -169.00806c0 -50.151276 -1.1376953 -93.44461 -3.4130707 -129.87997c-0.52282715 -8.701904 -1.1379242 -17.348877 -1.8452911 -25.940887l0 0l118.37727 193.05563l49.489532 0l121.769775 -195.69269l0 0c-0.9524536 10.930908 -1.7638855 21.88739 -2.434204 32.869415c-2.1941223 37.19272 -3.2911682 79.05557 -3.2911682 125.5885l0 169.00806l123.6019 0l0 -542.8705l-109.34015 0l-152.36249 253.22432l-150.18185 -253.22432z" fill-rule="evenodd"/></g></svg>